<svg width="248" height="248" viewBox="0 0 248 248" fill="none" xmlns="http://www.w3.org/2000/svg">
<path fill-rule="evenodd" clip-rule="evenodd" d="M56.3787 247.878C50.848 247.681 43.7198 247.248 40.4799 246.594V246.594C35.5343 245.596 30.8639 244.082 26.9798 242.102V242.102C22.4164 239.776 18.3264 236.809 14.7948 233.283V233.283C11.2551 229.75 8.27594 225.656 5.94093 221.086V221.086C3.96685 217.223 2.45348 212.581 1.45052 207.663V207.663C0.783433 204.391 0.342248 197.209 0.142249 191.643V191.643C0.061146 189.368 0.0195327 186.423 0.0195327 185.066V185.066L0 62.9536C0 61.6012 0.0411886 58.656 0.121867 56.3783V56.3783C0.318469 50.848 0.751161 43.7198 1.40551 40.4799V40.4799C2.4038 35.5347 3.91844 30.8639 5.89761 26.9798V26.9798C8.22371 22.4159 11.1906 18.3268 14.7166 14.7948V14.7948C18.2495 11.2555 22.3438 8.27636 26.9136 5.94093V5.94093C30.7772 3.96727 35.4192 2.45348 40.3364 1.45052V1.45052C43.609 0.783433 50.7907 0.342248 56.3571 0.142674V0.142674C58.6313 0.061146 61.5761 0.0195327 62.9341 0.0195327V0.0195327L185.046 0C186.399 0 189.344 0.040764 191.621 0.121867V0.121867C197.152 0.318893 204.28 0.751161 207.52 1.40551V1.40551C212.465 2.40423 217.136 3.91886 221.02 5.89761V5.89761C225.583 8.22371 229.673 11.191 233.205 14.7166V14.7166C236.744 18.25 239.723 22.3433 242.059 26.9136V26.9136C244.032 30.7772 245.547 35.4188 246.549 40.3364V40.3364C247.217 43.609 247.657 50.7911 247.857 56.3571V56.3571C247.939 58.6318 247.98 61.5761 247.98 62.9341V62.9341L248 185.046C248 186.399 247.959 189.344 247.878 191.621V191.621C247.681 197.152 247.248 204.28 246.594 207.52V207.52C245.596 212.465 244.081 217.136 242.102 221.02V221.02C239.776 225.584 236.809 229.673 233.283 233.205V233.205C229.75 236.744 225.656 239.724 221.086 242.059V242.059C217.222 244.033 212.581 245.547 207.663 246.549V246.549C204.391 247.216 197.209 247.657 191.643 247.857V247.857C189.368 247.939 186.423 247.98 185.066 247.98V247.98L62.9536 248C61.6007 248 58.6555 247.959 56.3787 247.878" fill="#1DA1F2"/>
<mask id="mask0_1_21" style="mask-type:luminance" maskUnits="userSpaceOnUse" x="0" y="0" width="248" height="248">
<path fill-rule="evenodd" clip-rule="evenodd" d="M56.3787 247.878C50.848 247.681 43.7198 247.248 40.4799 246.594V246.594C35.5343 245.596 30.8639 244.082 26.9798 242.102V242.102C22.4164 239.776 18.3264 236.809 14.7948 233.283V233.283C11.2551 229.75 8.27594 225.656 5.94093 221.086V221.086C3.96685 217.223 2.45348 212.581 1.45052 207.663V207.663C0.783433 204.391 0.342248 197.209 0.142249 191.643V191.643C0.061146 189.368 0.0195327 186.423 0.0195327 185.066V185.066L0 62.9536C0 61.6012 0.0411886 58.656 0.121867 56.3783V56.3783C0.318469 50.848 0.751161 43.7198 1.40551 40.4799V40.4799C2.4038 35.5347 3.91844 30.8639 5.89761 26.9798V26.9798C8.22371 22.4159 11.1906 18.3268 14.7166 14.7948V14.7948C18.2495 11.2555 22.3438 8.27636 26.9136 5.94093V5.94093C30.7772 3.96727 35.4192 2.45348 40.3364 1.45052V1.45052C43.609 0.783433 50.7906 0.342248 56.3571 0.142674V0.142674C58.6313 0.061146 61.5761 0.0195327 62.9341 0.0195327V0.0195327L185.046 0C186.399 0 189.344 0.040764 191.621 0.121867V0.121867C197.152 0.318893 204.28 0.751161 207.52 1.40551V1.40551C212.465 2.40423 217.136 3.91886 221.02 5.89761V5.89761C225.583 8.22371 229.673 11.191 233.205 14.7166V14.7166C236.744 18.25 239.723 22.3433 242.059 26.9136V26.9136C244.032 30.7772 245.547 35.4188 246.549 40.3364V40.3364C247.217 43.609 247.657 50.7911 247.857 56.3571V56.3571C247.939 58.6318 247.98 61.5761 247.98 62.9341V62.9341L248 185.046C248 186.399 247.959 189.344 247.878 191.621V191.621C247.681 197.152 247.248 204.28 246.594 207.52V207.52C245.596 212.465 244.081 217.136 242.102 221.02V221.02C239.776 225.584 236.809 229.673 233.283 233.205V233.205C229.75 236.744 225.656 239.724 221.086 242.059V242.059C217.222 244.033 212.581 245.547 207.663 246.549V246.549C204.391 247.216 197.209 247.657 191.643 247.857V247.857C189.368 247.939 186.423 247.98 185.066 247.98V247.98L62.9536 248C61.6007 248 58.6556 247.959 56.3787 247.878" fill="white"/>
</mask>
<g mask="url(#mask0_1_21)">
<path d="M96.5316 194C77.9071 194.018 59.6709 188.667 44 178.587C46.7145 178.902 49.4451 179.059 52.1779 179.055C67.608 179.079 82.5983 173.908 94.7397 164.37C87.5877 164.234 80.6571 161.862 74.9167 157.587C69.1764 153.312 64.9132 147.348 62.7233 140.527C64.8455 140.939 67.002 141.146 69.1635 141.148C72.2156 141.148 75.2541 140.742 78.1993 139.94C70.4419 138.371 63.4654 134.162 58.4533 128.028C53.4412 121.894 50.7021 114.212 50.7009 106.286C50.7009 106.134 50.7009 105.992 50.7009 105.851C55.4576 108.503 60.779 109.976 66.2203 110.147C58.9643 105.293 53.8294 97.85 51.862 89.3354C49.8946 80.8209 51.2426 71.8754 55.6315 64.3217C64.2289 74.9259 74.9564 83.6014 87.1177 89.7852C99.2791 95.969 112.603 99.523 126.224 100.217C124.49 92.8467 125.236 85.1095 128.347 78.2085C131.458 71.3076 136.759 65.63 143.426 62.059C150.092 58.488 157.75 57.2238 165.208 58.4632C172.666 59.7025 179.506 63.3759 184.664 68.9118C192.323 67.3868 199.668 64.5694 206.384 60.5799C203.825 68.5286 198.473 75.277 191.321 79.5715C198.114 78.7492 204.747 76.9161 211 74.1329C206.397 81.0274 200.605 87.0459 193.895 91.9063C193.971 93.3747 194.003 94.854 194.003 96.3442C194.003 141.691 159.522 194 96.4882 194" fill="white"/>
</g>
</svg>
